<svg width="51" height="37" viewBox="0 0 51 37" fill="none" xmlns="http://www.w3.org/2000/svg">
<path stroke="oklch(60% 0.1 224)" stroke-width="2" d="M25.6162 1C29.6682 1.00007 33.0566 2.45987 35.8428 5.40625C38.639 8.36326 40.0322 11.8894 40.0322 16.0391V18.457L41.0596 18.4287C43.5825 18.3587 45.6752 19.1623 47.4062 20.8398C49.1306 22.511 50 24.6104 50 27.2148C49.9999 29.6054 49.1448 31.6497 47.3955 33.3975C45.6462 35.1452 43.5996 35.9999 41.2061 36H12.2285C9.09002 36 6.45751 34.9154 4.27148 32.7314C2.08546 30.5474 1 27.9172 1 24.7822C1.00005 22.0063 1.88322 19.5921 3.66016 17.4971C5.43523 15.4044 7.67229 14.1532 10.4121 13.7266L11.0967 13.6201L11.2373 12.9404C11.9656 9.41149 13.6657 6.55461 16.3447 4.33008C19.0226 2.10665 22.0998 1 25.6162 1Z" />
</svg>
